<svg width="152" height="24" viewBox="0 0 152 24" fill="none" xmlns="http://www.w3.org/2000/svg">
<g clip-path="url(#clip0)">
<path d="M3.24098 1.44409C6.01479 1.44409 7.73748 1.79066 9.16818 3.0903C10.3361 4.18777 10.8617 5.54518 10.8617 7.30691C10.8617 8.14445 10.7449 8.982 10.2193 9.81954C9.72294 10.6571 9.08058 11.0614 8.61342 11.2925C8.99299 11.3791 10.3069 11.7257 11.3872 12.8232C12.5551 14.0362 12.8179 15.5091 12.8179 16.8087C12.8179 18.3394 12.4384 19.5524 11.3872 20.621C9.69374 22.4116 7.00752 22.7004 5.37244 22.7004H0V1.44409H3.24098ZM3.29938 10.5704H4.29211C5.10965 10.5704 6.18998 10.4838 6.97833 9.7329C7.70828 9.03976 7.82507 8.05781 7.82507 7.30691C7.82507 6.67153 7.73748 5.89175 7.06592 5.25637C6.33597 4.56323 5.40163 4.4477 4.4673 4.4477H3.32857V10.5704H3.29938ZM3.29938 19.639H5.28484C6.21918 19.639 7.70828 19.4658 8.52582 18.8015C9.16818 18.2816 9.57695 17.3863 9.57695 16.4333C9.57695 15.5668 9.25577 14.7582 8.70101 14.2094C7.79587 13.343 6.48196 13.2564 5.31404 13.2564H3.24098V19.639H3.29938Z" fill="white"/>
<path d="M30.512 17.5596H21.3146L18.9788 22.6715H15.4458L26.1323 0.202148L36.3224 22.7003H32.7894L30.512 17.5596ZM29.1981 14.4982L25.9863 7.30684L22.6869 14.4982H29.1981Z" fill="white"/>
<path d="M50.1329 6.15164C49.9285 5.66066 49.6365 5.22745 49.1694 4.82312C48.4978 4.27438 47.7971 4.07221 46.8627 4.07221C44.8773 4.07221 43.8261 5.25633 43.8261 6.61373C43.8261 7.24911 44.0597 8.37546 46.1328 9.18413L48.2934 10.0506C52.2644 11.639 53.3447 13.8628 53.3447 16.2888C53.3447 20.3321 50.4541 23.1047 46.4248 23.1047C43.9429 23.1047 42.4538 22.1805 41.3735 20.9675C40.2056 19.6968 39.7092 18.2816 39.5632 16.8376L42.8042 16.1444C42.8042 17.1841 43.1838 18.195 43.7094 18.8592C44.3225 19.6101 45.2276 20.13 46.5124 20.13C48.4978 20.13 50.0453 18.6859 50.0453 16.5488C50.0453 14.3827 48.381 13.4874 46.9503 12.9098L44.8773 12.0433C43.0962 11.3213 40.4976 9.84839 40.4976 6.67149C40.4976 3.81229 42.7458 1.0686 46.7751 1.0686C49.0818 1.0686 50.4249 1.93503 51.0964 2.51265C51.6804 3.0325 52.2936 3.75452 52.7315 4.64983L50.1329 6.15164Z" fill="white"/>
<path d="M84.7618 1.44409V19.639H91.0686V22.7004H81.4624V1.44409H84.7618Z" fill="white"/>
<path d="M103.011 1.44409V22.7004H99.7112V1.44409H103.011Z" fill="white"/>
<path d="M112.062 22.6715V0L127.654 16.1444V1.44404H130.953V24L115.332 7.82671V22.6715H112.062Z" fill="white"/>
<path d="M72.3819 1.55957H60.6443V4.5343H72.3819V1.55957Z" fill="white"/>
<path d="M72.3819 19.6101H60.6443V22.5848H72.3819V19.6101Z" fill="#41D3BD"/>
<path d="M151.333 1.55957H139.596V4.5343H151.333V1.55957Z" fill="white"/>
<path d="M151.333 19.6101H139.596V22.5848H151.333V19.6101Z" fill="white"/>
<path d="M72.3819 10.5703H60.6443V13.545H72.3819V10.5703Z" fill="white"/>
<path d="M151.333 10.5703H139.596V13.545H151.333V10.5703Z" fill="white"/>
</g>
<defs>
<clipPath id="clip0">
<rect width="151.333" height="24" fill="white"/>
</clipPath>
</defs>
</svg>
