<svg id="Capa_1" enable-background="new 0 0 497 497" height="512" viewBox="0 0 497 497" width="512" xmlns="http://www.w3.org/2000/svg"><g><g><path d="m497 124.995v314c0 13.807-11.193 25-25 25h-447c-13.807 0-25-11.193-25-25v-314z" fill="#f8f7f7"/><path d="m497 125.005v15h-476c-3.31 0-6 2.69-6 6v315.91c-8.83-3.85-15-12.66-15-22.91v-314z" fill="#e8e8e8"/><path d="m497 58.005v67.5h-497v-67.5c0-13.807 11.193-25 25-25h447c13.807 0 25 11.193 25 25z" fill="#855b51"/><g fill="#724d44"><path d="m242.758 109.005c-8.255 0-14.947-6.716-14.947-15s6.692-15 14.947-15h186.315c8.255 0 14.947 6.716 14.947 15s-6.692 15-14.947 15z"/><ellipse cx="164.869" cy="93.005" rx="14.947" ry="15"/><path d="m175.361 103.689 12.874-12.869-13.139 1.179z"/><path d="m154.592 82.114 12.562-12.517-2.693 10.408z"/><ellipse cx="104.034" cy="93.005" rx="14.947" ry="15"/><path d="m114.553 103.662 12.382-12.498-12.674.835z"/><path d="m93.757 82.114 12.371-12.46-2.502 10.351z"/><ellipse cx="44.947" cy="93.005" rx="14.947" ry="15"/><path d="m55.769 103.351 12.721-13.186-13.139 1.381z"/><path d="m34.67 82.114 11.622-12.039-1.753 9.93z"/></g><ellipse cx="177.849" cy="80.005" fill="#b3e59f" rx="14.947" ry="15"/><path d="m232.916 82.716 13.037-12.859-3.025 14.276z" fill="#724d44"/><path d="m439.83 104.421 13.149-13.18-10.185 3.381z" fill="#724d44"/><ellipse cx="116.946" cy="80.005" fill="#ffd163" rx="14.947" ry="15"/><ellipse cx="57.495" cy="80.005" fill="#dc4955" rx="14.947" ry="15"/><path d="m255.737 96.005c-8.255 0-14.947-6.716-14.947-15s6.692-15 14.947-15h186.315c8.255 0 14.947 6.716 14.947 15s-6.692 15-14.947 15z" fill="#f8f7f7"/></g><path d="m339 421.255h-289c-5.523 0-10-4.477-10-10v-68c0-5.523 4.477-10 10-10l3-1h287c5.523 0 10 4.477 10 10v66l-1 3c0 5.523-4.477 10-10 10z" fill="#bae6ef"/><path d="m350 408.255v4c0 5.523-4.477 10-10 10h-44.09l-7.126-2.64-8.414 2.64h-231.37c-5.523 0-10-4.477-10-10v-70c0-5.523 4.477-10 10-10h4v72c0 2.209 1.791 4 4 4z" fill="#94d8e6"/><g fill="#e8e8e8"><path d="m130 171.755h-90c-4.142 0-7.5-3.358-7.5-7.5s3.358-7.5 7.5-7.5h90c4.142 0 7.5 3.358 7.5 7.5s-3.358 7.5-7.5 7.5z"/><path d="m416 339.755h-32c-4.143 0-7.5-3.358-7.5-7.5s3.357-7.5 7.5-7.5h32c4.143 0 7.5 3.358 7.5 7.5s-3.357 7.5-7.5 7.5z"/><path d="m456 369.755h-21.437c-4.143 0-7.5-3.358-7.5-7.5s3.357-7.5 7.5-7.5h21.437c4.143 0 7.5 3.358 7.5 7.5s-3.357 7.5-7.5 7.5z"/><path d="m404.563 369.755h-20.563c-4.143 0-7.5-3.358-7.5-7.5s3.357-7.5 7.5-7.5h20.563c4.143 0 7.5 3.358 7.5 7.5s-3.357 7.5-7.5 7.5z"/><path d="m456 399.755h-72c-4.143 0-7.5-3.358-7.5-7.5s3.357-7.5 7.5-7.5h72c4.143 0 7.5 3.358 7.5 7.5s-3.357 7.5-7.5 7.5z"/><path d="m435 429.755h-51c-4.143 0-7.5-3.358-7.5-7.5s3.357-7.5 7.5-7.5h51c4.143 0 7.5 3.358 7.5 7.5s-3.357 7.5-7.5 7.5z"/><path d="m388 223.755h-97.437c-4.143 0-7.5-3.358-7.5-7.5s3.357-7.5 7.5-7.5h97.437c4.143 0 7.5 3.358 7.5 7.5s-3.357 7.5-7.5 7.5z"/><path d="m260.563 223.755h-31.563c-4.142 0-7.5-3.358-7.5-7.5s3.358-7.5 7.5-7.5h31.563c4.143 0 7.5 3.358 7.5 7.5s-3.357 7.5-7.5 7.5z"/><path d="m339 253.755h-110c-4.142 0-7.5-3.358-7.5-7.5s3.358-7.5 7.5-7.5h110c4.143 0 7.5 3.358 7.5 7.5s-3.357 7.5-7.5 7.5z"/><path d="m253 283.755h-24c-4.142 0-7.5-3.358-7.5-7.5s3.358-7.5 7.5-7.5h24c4.143 0 7.5 3.358 7.5 7.5s-3.357 7.5-7.5 7.5z"/></g><g><path d="m180 211.255v38.45c-6.1-3.77-13.644-5.404-21.344-5.404-22.09 0-38.229 17.364-38.229 39.454 0 1.9-1.117 5.31-.817 7.5l-68.61-1c-5.52 0-10-4.48-10-10l-1-26.46 4.821-1.39c33.89-2.25 63.812-20.32 80.312-49.98.08-.16.17-.32.26-.48l.827-.69h43.78c5.52 0 10 4.48 10 10z" fill="#c8b8f4"/><path d="m180 249.705v27.55l-1 3c0 5.52-4.48 10-10 10h-48.39c-.3-2.19-.61-5.6-.61-7.5 0-2.214-.82-3.385-.474-5.501 3.106-18.999 19.598-33.499 39.474-33.499 7.7 0 14.9 2.18 21 5.95z" fill="#bae6ef"/><path d="m126.22 201.255-.22.5c-.09.16-.18.32-.26.48-15.013 26.987-41.55 45.381-71.74 50.172-2.99.475-5.016-.184-8.07.018l-4.93.37v-40.54c0-5.52 4.48-10 10-10l3-1z" fill="#ffd163"/></g><path d="m119.61 291.255h-69.61c-5.523 0-10-4.477-10-10v-27.46l5.977-2.723 8.023 1.333v19.85c0 2.761 2.239 5 5 5h60.53l.873 7z" fill="#b09eef"/><path d="m180 277.255v4c0 5.52-4.48 10-10 10h-50.39c-.41-3.755-1.053-8.491-.08-14z" fill="#94d8e6"/><path d="m54 201.255v51.15c-2.99.47-6.01.82-9.07 1.02l-4.93.37v-42.54c0-5.52 4.48-10 10-10z" fill="#ffb65f"/><g><g><path d="m253.2 369.995-53.45-13.9 31.29-23.84-12.604-3.128-12.166 3.128-73.53 56.02-45.09-23.85 26.47-32.17-11.776-3.128-7.644 3.128-55.7 67.7-4.197 14.217c0 2.91 5.447 3.623 7.437 5.443l35.68-43.36 87 46 29.02 4.523 18.1-4.523-16.71-51.8 54.09 14.06c.63.16 1.27.24 1.89.24 3.34 0 6.38-2.24 7.26-5.61 1.04-4.01-1.37-8.11-5.37-9.15zm-56.824 52.26-49.016-26.24 32.47-24.75z" fill="#f8f7f7"/></g><g><path d="m350 377.225-59.5 25.08 5.41 19.95-7.07 2.541-8.469-2.541-12.61-46.54c-1.08-4 1.28-8.12 5.28-9.2s8.12 1.28 9.2 5.28l4.31 15.91 63.45-26.75 3.188 8.8z" fill="#f8f7f7"/></g></g><g><g fill="#e8e8e8"><path d="m212.04 422.255h-47.12l-26.48-14h32.07l25.866 14-4.606-14h15.75z"/><path d="m53.42 406.025-11.18 13.59c-.82-.75-1.52-1.64-2.05-2.63-.07-.13-.14-.26-.2-.4-.07-.14-.14-.29-.2-.44-.07-.15-.13-.3-.18-.45-.11-.31-.21-.62-.29-.94-.05-.16-.08-.32-.12-.48-.13-.65-.2-1.33-.2-2.02v-12.3l14-17.02v21.32c0 .63.15 1.23.42 1.77z"/></g><g><path d="m295.91 422.255h-15.54l-3.79-14h15.53z" fill="#e8e8e8"/></g></g><g><path d="m304.554 359.055c-1.35.97-2.79 1.82-4.3 2.56l-23.87 11.7-15.013-11.409-12.887-16.491 9.576-13.16c.74-1.51 3.704-13.67 4.674-15.02l22.252 16.185z" fill="#f2d1a5"/><path d="m401.02 263.195-92.55 92.55c-1.21 1.21-2.52 2.32-3.92 3.31l-21.17-21.17 96.16-96.17z" fill="#ccf49f"/><path d="m379.54 241.715-96.16 96.17-20.65-20.65c1-1.4 2.11-2.71 3.32-3.92l49.395-45.399 43.145-47.151z" fill="#b3e59f"/><path d="m276.384 373.315-36.33 17.79c-.98.48-1.427-.231-2.467-.231-1.82 0-3.61-.7-4.95-2.05-2.11-2.11-2.218-4.586-.908-7.266l16.755-36.143z" fill="#9e959e"/><path d="m272.3 326.805c-.95 1.33-1.79 2.76-2.52 4.25l-11.69 23.88-.03.06-7.257-3.079-2.323-6.501 11.69-23.88c.74-1.51 1.59-2.95 2.56-4.3l5.333 2.424z" fill="#f2bb88"/><path d="m368.16 230.335-92.5 92.5c-1.21 1.21-2.32 2.52-3.32 3.92-.01.02-.02.03-.04.05l-9.57-9.57c1-1.4 2.11-2.71 3.32-3.92l92.54-92.55z" fill="#95d6a4"/><path d="m258.06 354.995-17.59 35.9-.42.21c-.98.48-2.04.71-3.08.71-1.82 0-3.61-.7-4.95-2.05-2.11-2.11-2.65-5.34-1.34-8.02l17.8-36.33z" fill="#8e868e"/><g><path d="m263.461 282.298h135.998v15.005h-135.998z" fill="#b3e59f" transform="matrix(.707 -.707 .707 .707 -107.839 319.235)"/></g><path d="m441.492 218.199-38.883-39.15 16.964-17.372c5.475-5.475 14.236-8.361 20.127-3.602.412.333.811.691 1.194 1.074l21.213 21.213c5.858 5.858 5.858 15.355 0 21.213l-8.718 8.718z" fill="#ffd163"/><path d="m453.39 210.295-9.9 9.9-25.403-20.714-17.027-21.716 18.62-18.62c5.48-5.47 14.14-5.83 20.02-1.07l-16.811 17.57c-1.128 1.178-1.107 3.042.046 4.195z" fill="#ffb65f"/><path d="m399.074 261.78-31.185-31.185-7.413-8.413c-4.686-4.686-4.686-12.284 0-16.971l25.163-25.163c4.686-4.686 12.284-4.686 16.971 0l8.418 7.418 31.18 31.18c4.686 4.686 4.686 12.284 0 16.971l-26.163 26.163c-4.687 4.687-12.285 4.687-16.971 0z" fill="#9e959e"/><path d="m411.03 187.465-43.14 43.13-8.41-8.41c-4.69-4.69-4.69-12.29 0-16.97l26.16-26.17c4.69-4.68 12.28-4.68 16.97 0z" fill="#8e868e"/><g><path d="m429.126 256.199c-1.919 0-3.839-.732-5.304-2.197l-56.568-56.568c-2.929-2.929-2.929-7.678 0-10.606 2.93-2.929 7.678-2.929 10.607 0l56.568 56.568c2.929 2.929 2.929 7.678 0 10.606-1.464 1.464-3.384 2.197-5.303 2.197z" fill="#8e868e"/></g><g><path d="m394.76 203.725-10.61 10.61-16.9-16.9c-2.92-2.93-2.92-7.68 0-10.61 2.93-2.93 7.68-2.93 10.61 0z" fill="#766d78"/></g></g></g></svg>