<svg id="Capa_1" enable-background="new 0 0 493.287 493.287" height="512" viewBox="0 0 493.287 493.287" width="512" xmlns="http://www.w3.org/2000/svg"><g><path d="m291.974 299.083h-139.973l-10.304 171.277h160.581zm-30.498 105.528c0 19.931-16.157 36.089-36.089 36.089h-4.928c-19.931 0-36.089-16.157-36.089-36.089v-24.834c0-19.931 16.157-36.089 36.089-36.089h4.928c19.931 0 36.089 16.157 36.089 36.089z" fill="#07b2cd"/><g fill="#0199b1"><path d="m212.155 344.659c-2.668-.629-5.445-.971-8.305-.971h-4.928c-19.931 0-36.089 16.157-36.089 36.089v24.834c0 19.931 16.157 36.089 36.089 36.089h4.928c2.859 0 5.637-.343 8.305-.971-15.926-3.753-27.784-18.045-27.784-35.117v-24.834c.001-17.073 11.858-31.366 27.784-35.119z"/><path d="m291.974 299.083h-21.537l10.304 171.277h21.537z"/></g><path d="m445.843 112.563v248.97h-445.839v-248.97c0-15.53 11.16-28.46 25.9-31.19 1.89-.36 3.84-.54 5.83-.54h382.39c17.52 0 31.719 14.21 31.719 31.73z" fill="#edf5fa"/><path d="m85.864 80.833v280.7h-59.96v-280.16c1.89-.36 3.84-.54 5.83-.54z" fill="#d0e7f2"/><path d="m414.119 80.836h-26.104c17.524 0 31.729 14.206 31.729 31.729v248.971h26.104v-248.971c0-17.524-14.206-31.729-31.729-31.729z" fill="#d0e7f2"/><g><path d="m318.171 353.453h-266.358v-338.311c0-7.841 6.356-14.197 14.197-14.197h237.963c7.841 0 14.197 6.356 14.197 14.197v338.311z" fill="#00f2a6"/><path d="m303.974.945h-21c7.841 0 14.197 6.356 14.197 14.197v338.311h21v-338.311c0-7.841-6.356-14.197-14.197-14.197z" fill="#05e39c"/></g><path d="m173.688 137.822h-81.33c-6.046 0-10.947-4.901-10.947-10.947v-58.815c0-6.046 4.901-10.947 10.947-10.947h81.33c6.046 0 10.947 4.901 10.947 10.947v58.815c0 6.046-4.901 10.947-10.947 10.947z" fill="#f6c2e0"/><path d="m0 349.453v13.019c0 16.415 13.307 29.722 29.722 29.722h386.404c16.415 0 29.722-13.307 29.722-29.722v-13.019z" fill="#30dde5"/><path d="m419.744 349.453v13.019c0 16.415-13.307 29.722-29.722 29.722h26.104c16.415 0 29.722-13.307 29.722-29.722v-13.019z" fill="#02c7dd"/><path d="m173.688 57.113h-22.038c6.046 0 10.947 4.901 10.947 10.947v58.815c0 6.046-4.901 10.947-10.947 10.947h22.038c6.046 0 10.947-4.901 10.947-10.947v-58.815c0-6.046-4.901-10.947-10.947-10.947z" fill="#f6a6d2"/><path d="m286.286 306.523h-53.893c-6.046 0-10.947-4.901-10.947-10.947v-40.433c0-6.046 4.901-10.947 10.947-10.947h53.893c6.046 0 10.947 4.901 10.947 10.947v40.433c0 6.046-4.901 10.947-10.947 10.947z" fill="#edf5fa"/><path d="m286.286 244.196h-22.038c6.046 0 10.947 4.901 10.947 10.947v40.433c0 6.046-4.901 10.947-10.947 10.947h22.038c6.046 0 10.947-4.901 10.947-10.947v-40.433c0-6.046-4.901-10.947-10.947-10.947z" fill="#d0e7f2"/><g><path d="m360.288 492.342c-2.627 0-5.177-1.382-6.551-3.837-3.677-6.566-10.635-10.645-18.159-10.645h-225.308c-7.525 0-14.483 4.079-18.16 10.645-2.024 3.614-6.593 4.904-10.208 2.88-3.614-2.023-4.904-6.594-2.88-10.208 6.326-11.298 18.299-18.316 31.248-18.316h225.309c12.948 0 24.922 7.019 31.247 18.316 2.023 3.614.734 8.185-2.88 10.208-1.16.649-2.418.957-3.658.957z" fill="#30dde5"/></g><g><path d="m288.984 88.336h-66.835c-4.142 0-7.5-3.358-7.5-7.5s3.358-7.5 7.5-7.5h66.835c4.143 0 7.5 3.358 7.5 7.5s-3.357 7.5-7.5 7.5z" fill="#edf5fa"/></g><g><path d="m288.984 116.02h-66.835c-4.142 0-7.5-3.358-7.5-7.5s3.358-7.5 7.5-7.5h66.835c4.143 0 7.5 3.358 7.5 7.5s-3.357 7.5-7.5 7.5z" fill="#edf5fa"/></g><g><path d="m279.882 226.011h-194.022c-4.142 0-7.5-3.358-7.5-7.5s3.358-7.5 7.5-7.5h194.022c4.143 0 7.5 3.358 7.5 7.5s-3.358 7.5-7.5 7.5z" fill="#edf5fa"/></g><g><path d="m214.046 197.326h-128.186c-4.142 0-7.5-3.358-7.5-7.5s3.358-7.5 7.5-7.5h128.186c4.142 0 7.5 3.358 7.5 7.5s-3.358 7.5-7.5 7.5z" fill="#edf5fa"/></g><g><path d="m189.084 271.017h-48.561c-4.142 0-7.5-3.358-7.5-7.5s3.358-7.5 7.5-7.5h48.561c4.142 0 7.5 3.358 7.5 7.5s-3.358 7.5-7.5 7.5z" fill="#edf5fa"/></g><g><path d="m105.082 271.017h-19.222c-4.142 0-7.5-3.358-7.5-7.5s3.358-7.5 7.5-7.5h19.223c4.142 0 7.5 3.358 7.5 7.5s-3.358 7.5-7.501 7.5z" fill="#edf5fa"/></g><g><path d="m189.084 298.702h-103.224c-4.142 0-7.5-3.358-7.5-7.5s3.358-7.5 7.5-7.5h103.224c4.142 0 7.5 3.358 7.5 7.5s-3.358 7.5-7.5 7.5z" fill="#edf5fa"/></g><g><path d="m354.162 15.115h44.533v222.946h-44.533z" fill="#af66da" transform="matrix(.707 .707 -.707 .707 199.764 -229.098)"/><path d="m273.864 125.83h222.946v19.333h-222.946z" fill="#9857bd" transform="matrix(.707 -.707 .707 .707 17.052 312.161)"/><path d="m313.349 221.156-31.489-31.489-4.984 31.236c-.49 3.073 2.164 5.727 5.237 5.237z" fill="#ffdfcf"/><path d="m278.484 210.836-1.606 10.069c-.49 3.073 2.165 5.727 5.237 5.237l31.239-4.986-13.7-13.7-17.74 2.83c-1.69.27-3.15-1.19-2.88-2.88z" fill="#ffcebf"/><path d="m490.314 29.834-17.132-17.132c-3.965-3.965-10.393-3.965-14.357 0l-24.315 24.315 31.489 31.489 24.314-24.314c3.965-3.965 3.965-10.393.001-14.358z" fill="#fe5ca7"/><path d="m490.314 29.834-17.132-17.132c-3.965-3.965-10.392-3.965-14.357 0l-6.464 6.464 10.668 10.668c3.965 3.965 3.965 10.393 0 14.357l-10.671 10.671 13.643 13.643 24.314-24.314c3.963-3.964 3.963-10.392-.001-14.357z" fill="#fe3d97"/></g></g></svg>