<svg id="Capa_1" enable-background="new 0 0 512 512" height="512" viewBox="0 0 512 512" width="512" xmlns="http://www.w3.org/2000/svg"><g><path d="m512 256c0 141.385-114.615 256-256 256s-256-114.615-256-256 114.615-256 256-256 256 114.615 256 256z" fill="#2b3894"/><path d="m504.173 319.068c-11.252 44.413-34.113 84.199-65.165 115.94h-271.222c-5.523 0-10-4.477-10-10v-155.086h-157.414c-.247-4.609-.372-9.251-.372-13.922 0-61.505 21.69-117.945 57.839-162.086h231.508c3.557 0 6.846 1.889 8.638 4.961l45.502 78.004c1.816 3.113 1.816 6.963 0 10.077l-42.025 72.044h161.927c3.557 0 6.846 1.889 8.638 4.961z" fill="#232e7a"/><path d="m388.396 142.047-45.502 78.004c-1.792 3.072-5.081 4.961-8.638 4.961h-295.602c-5.523 0-10-4.477-10-10v-156.008c0-5.523 4.477-10 10-10h295.603c3.557 0 6.846 1.889 8.638 4.961l45.502 78.004c1.816 3.114 1.816 6.965-.001 10.078z" fill="#1ed688"/><path d="m64.524 225.013h-25.87c-5.523 0-10-4.477-10-10v-156.009c0-5.523 4.477-10 10-10h25.871c-5.523 0-10 4.477-10 10v156.008c-.001 5.524 4.476 10.001 9.999 10.001z" fill="#1ab975"/><path d="m160 87.5c0-4.142 3.358-7.5 7.5-7.5h145c4.142 0 7.5 3.358 7.5 7.5s-3.358 7.5-7.5 7.5h-145c-4.142 0-7.5-3.358-7.5-7.5zm152.5 27.5h-145c-4.142 0-7.5 3.358-7.5 7.5s3.358 7.5 7.5 7.5h145c4.142 0 7.5-3.358 7.5-7.5s-3.358-7.5-7.5-7.5z" fill="#a1ffbc"/><path d="m334.256 462.996h-295.603c-5.523 0-10-4.477-10-10v-156.009c0-5.523 4.477-10 10-10h295.603c3.557 0 6.846 1.889 8.638 4.961l45.503 78.004c1.816 3.114 1.816 6.964 0 10.077l-45.503 78.004c-1.792 3.074-5.081 4.963-8.638 4.963z" fill="#f76c57"/><path d="m64.524 462.996h-25.87c-5.523 0-10-4.477-10-10v-156.009c0-5.523 4.477-10 10-10h25.871c-5.523 0-10 4.477-10 10v156.008c-.001 5.523 4.476 10.001 9.999 10.001z" fill="#e5554e"/><path d="m160 372.5c0-4.142 3.358-7.5 7.5-7.5h145c4.142 0 7.5 3.358 7.5 7.5s-3.358 7.5-7.5 7.5h-145c-4.142 0-7.5-3.358-7.5-7.5zm152.5 27.5h-145c-4.142 0-7.5 3.358-7.5 7.5s3.358 7.5 7.5 7.5h145c4.142 0 7.5-3.358 7.5-7.5s-3.358-7.5-7.5-7.5z" fill="#faa598"/><path d="m510.638 258.026-45.502 78.004c-1.792 3.072-5.081 4.961-8.638 4.961h-295.603c-5.523 0-10-4.477-10-10v-156.008c0-5.523 4.477-10 10-10h295.603c3.557 0 6.846 1.889 8.638 4.961l45.502 78.004c1.816 3.114 1.816 6.964 0 10.078z" fill="#eac23f"/><path d="m186.765 340.991h-25.871c-5.523 0-10-4.477-10-10v-156.008c0-5.523 4.477-10 10-10h25.871c-5.523 0-10 4.477-10 10v156.008c0 5.523 4.477 10 10 10z" fill="#e1b91e"/><path d="m450 252.987c0 4.142-3.358 7.5-7.5 7.5h-145c-4.142 0-7.5-3.358-7.5-7.5 0-4.142 3.358-7.5 7.5-7.5h145c4.142 0 7.5 3.358 7.5 7.5zm-7.5 27.5h-145c-4.142 0-7.5 3.358-7.5 7.5 0 4.142 3.358 7.5 7.5 7.5h145c4.142 0 7.5-3.358 7.5-7.5 0-4.142-3.358-7.5-7.5-7.5z" fill="#edd578"/><path d="m378 217.987c0 4.142-3.358 7.5-7.5 7.5h-73c-4.142 0-7.5-3.358-7.5-7.5s3.358-7.5 7.5-7.5h73c4.142 0 7.5 3.358 7.5 7.5z" fill="#fff79f"/><path d="m120.664 252.987c0-39.227 32.266-70.917 71.705-69.98 37.007.88 67.231 30.967 68.267 67.97.583 20.819-7.927 39.66-21.849 52.844-2.1 1.988-5.307 2.23-7.665.557-11.424-8.105-25.384-12.869-40.458-12.869-14.991 0-28.881 4.712-40.27 12.737-2.47 1.74-5.824 1.508-8.011-.576-13.381-12.749-21.719-30.742-21.719-50.683z" fill="#b4e7fd"/><path d="m229.709 232.651v43.371h-78.524v-43.371c0-20.587 16.689-37.277 37.277-37.277h3.971c20.587 0 37.276 16.689 37.276 37.277z" fill="#915041"/><path d="m189.133 285.424c-11.834 0-21.428 9.594-21.428 21.429v3.453c0 4.384-4.627 7.186-8.541 5.21-6.342-3.201-12.13-7.339-17.183-12.231 1.699-10.136 10.513-17.861 21.132-17.861z" fill="#3342ae"/><path d="m239.348 303.285c-12.598 12.196-29.764 19.702-48.684 19.702-11.615 0-22.568-2.829-32.21-7.835v-8.299c0-11.835 9.594-21.429 21.429-21.429h38.333c10.618 0 19.433 7.725 21.132 17.861z" fill="#3d4ec6"/><path d="m231.99 247.159v2.768c0 4.079-3.066 7.661-7.136 7.929-.94.062-1.846-.047-2.691-.297-3.751 9.897-12.033 17.567-22.315 20.475v10.136c0 4.891-3.691 9.162-8.572 9.479-5.349.347-9.796-3.889-9.796-9.163v-10.452c-10.281-2.908-18.564-10.577-22.315-20.475-.846.25-1.753.359-2.693.297-4.069-.269-7.134-3.851-7.134-7.929v-2.768c0-4.227 3.426-7.653 7.653-7.653v-6.123c0-6.241 1.698-12.085 4.657-17.096 1.041-1.763 3.09-2.659 5.089-2.215 7.373 1.638 15.453 2.542 23.927 2.542 8.475 0 16.555-.904 23.928-2.543 1.999-.444 4.048.451 5.089 2.215 2.959 5.011 4.657 10.855 4.657 17.096v6.123c4.226.001 7.652 3.428 7.652 7.654z" fill="#e09380"/><path d="m224.337 233.384v12.245c0 15.157-10.014 27.974-23.786 32.198-13.772-4.224-23.786-17.041-23.786-32.198v-12.245c0-6.635 1.919-12.821 5.232-18.035 8.583-13.506 37.613.813 37.853 1.229 2.854 4.946 4.487 10.685 4.487 16.806z" fill="#faa68e"/><path d="m183.328 243.89c0 2.315-1.877 4.193-4.193 4.193h-4.192c-2.315 0-4.192-1.877-4.192-4.193s1.877-4.192 4.192-4.192h4.192c2.316 0 4.193 1.877 4.193 4.192zm23.057-4.192h-4.192c-2.315 0-4.193 1.877-4.193 4.192s1.877 4.193 4.193 4.193h4.192c2.315 0 4.192-1.877 4.192-4.193s-1.876-4.192-4.192-4.192z" fill="#915041"/><path d="m196.953 258.982v.419c0 3.473-2.815 6.289-6.289 6.289-3.473 0-6.289-2.815-6.289-6.289v-.419c0-.926.751-1.677 1.677-1.677h9.223c.927.001 1.678.752 1.678 1.677z" fill="#fff5f5"/><path d="m190.664 199.711c12.754 0 23.887 6.785 29.834 16.867-8.91 2.47-19.062 3.868-29.835 3.868-10.772 0-20.924-1.398-29.834-3.868 5.948-10.082 17.081-16.867 29.835-16.867z" fill="#915041"/><path d="m0 374.992c0-39.227 32.266-70.917 71.705-69.98 37.007.88 67.231 30.967 68.267 67.97.583 20.819-7.927 39.66-21.849 52.844-2.1 1.988-5.307 2.23-7.665.557-11.424-8.104-25.385-12.868-40.458-12.868-14.991 0-28.881 4.712-40.27 12.737-2.47 1.74-5.824 1.508-8.011-.576-13.381-12.75-21.719-30.744-21.719-50.684z" fill="#b4e7fd"/><path d="m109.045 330.042v42.458h-78.524v-17.845c0-20.587 16.689-37.276 37.277-37.276h28.584c6.993-.001 12.663 5.669 12.663 12.663z" fill="#4c2c21"/><path d="m68.469 407.429c-11.834 0-21.428 9.594-21.428 21.429v3.453c0 4.384-4.627 7.186-8.541 5.21-6.342-3.201-12.13-7.339-17.183-12.231 1.699-10.136 10.513-17.861 21.132-17.861z" fill="#eac23f"/><path d="m118.684 425.289c-12.599 12.197-29.765 19.703-48.684 19.703-11.615 0-22.568-2.829-32.21-7.835v-8.299c0-11.835 9.594-21.429 21.429-21.429h38.333c10.618 0 19.433 7.724 21.132 17.86z" fill="#e9cc5a"/><path d="m111.326 369.163v2.768c0 4.079-3.066 7.661-7.136 7.929-.94.062-1.846-.047-2.691-.297-3.751 9.897-12.033 17.567-22.315 20.475v10.136c0 4.891-3.691 9.162-8.572 9.479-5.349.347-9.796-3.889-9.796-9.163v-10.452c-10.281-2.908-18.564-10.577-22.315-20.475-.846.25-1.753.359-2.693.297-4.069-.269-7.134-3.851-7.134-7.929v-2.768c0-4.227 3.426-7.653 7.653-7.653v-6.123c0-6.241 1.698-12.085 4.657-17.096 1.041-1.763 3.09-2.659 5.089-2.215 7.373 1.638 15.453 2.543 23.927 2.543s16.555-.904 23.928-2.543c1.999-.444 4.048.451 5.089 2.215 2.959 5.011 4.657 10.855 4.657 17.096v6.123c4.226.001 7.652 3.427 7.652 7.653z" fill="#a65d4e"/><path d="m103.673 355.388v12.245c0 15.157-10.014 27.974-23.786 32.198-13.772-4.224-23.786-17.041-23.786-32.198v-12.245c0-6.635 1.919-12.821 5.232-18.035 8.583-13.506 37.613.813 37.853 1.229 2.854 4.946 4.487 10.685 4.487 16.806z" fill="#b46e5a"/><path d="m76.289 383.502c0 2.315-1.877 4.193-4.193 4.193h-4.192c-2.315 0-4.192-1.877-4.192-4.193s1.877-4.192 4.192-4.192h4.192c2.316 0 4.193 1.877 4.193 4.192zm-13.625-17.608c0 2.315-1.877 4.193-4.193 4.193h-4.192c-2.315 0-4.192-1.877-4.192-4.193s1.877-4.192 4.192-4.192h4.192c2.316 0 4.193 1.877 4.193 4.192zm23.057-4.192h-4.192c-2.315 0-4.193 1.877-4.193 4.192s1.877 4.193 4.193 4.193h4.192c2.315 0 4.192-1.877 4.192-4.193s-1.876-4.192-4.192-4.192z" fill="#915041"/><path d="m70 321.715c13.088 0 24.514 6.785 30.617 16.867-9.144 2.47-19.562 3.868-30.617 3.868s-21.473-1.398-30.617-3.868c6.103-10.082 17.529-16.867 30.617-16.867z" fill="#4c2c21"/><path d="m0 137.008c0-39.227 32.266-70.917 71.705-69.98 37.007.88 67.231 30.967 68.267 67.97.583 20.819-7.927 39.66-21.849 52.844-2.1 1.988-5.307 2.23-7.665.557-11.424-8.103-25.385-12.867-40.458-12.867-14.991 0-28.881 4.712-40.27 12.737-2.47 1.74-5.824 1.508-8.011-.576-13.381-12.751-21.719-30.744-21.719-50.685z" fill="#b4e7fd"/><path d="m109.045 116.672v43.371h-78.524v-43.371c0-17.051 11.448-31.428 27.078-35.864-.302-.742-.469-1.553-.469-2.403 0-3.525 2.858-6.383 6.383-6.383h12.54c3.525 0 6.383 2.857 6.383 6.383 0 .85-.167 1.662-.469 2.403 15.629 4.436 27.078 18.813 27.078 35.864z" fill="#eac23f"/><path d="m68.469 169.446c-11.834 0-21.428 9.594-21.428 21.429v3.453c0 4.384-4.627 7.186-8.541 5.21-6.342-3.201-12.13-7.339-17.183-12.231 1.699-10.136 10.513-17.861 21.132-17.861z" fill="#e5554e"/><path d="m118.684 187.306c-12.599 12.197-29.765 19.702-48.684 19.702-11.615 0-22.568-2.829-32.21-7.835v-8.299c0-11.835 9.594-21.429 21.429-21.429h38.333c10.618.001 19.433 7.725 21.132 17.861z" fill="#f76c57"/><path d="m111.326 131.18v2.768c0 4.079-3.066 7.661-7.136 7.929-.94.062-1.846-.047-2.691-.297-3.751 9.897-12.033 17.567-22.315 20.475v10.136c0 4.891-3.691 9.162-8.572 9.479-5.349.347-9.796-3.889-9.796-9.163v-10.452c-10.281-2.908-18.564-10.577-22.315-20.475-.846.25-1.753.359-2.693.297-4.069-.269-7.134-3.851-7.134-7.929v-2.768c0-4.227 3.426-7.653 7.653-7.653v-6.123c0-6.241 1.698-12.085 4.657-17.096 1.041-1.763 3.09-2.659 5.089-2.215 7.373 1.638 15.453 2.542 23.927 2.542s16.555-.904 23.928-2.543c1.999-.444 4.048.451 5.089 2.215 2.959 5.011 4.657 10.855 4.657 17.096v6.123c4.226.002 7.652 3.428 7.652 7.654z" fill="#d47f6c"/><path d="m103.673 117.405v12.245c0 15.157-10.014 27.974-23.786 32.198-13.772-4.224-23.786-17.041-23.786-32.198v-12.245c0-6.635 1.919-12.821 5.232-18.035 8.583-13.506 37.613.813 37.853 1.229 2.854 4.946 4.487 10.685 4.487 16.806z" fill="#e09380"/><path d="m62.664 127.911c0 2.315-1.877 4.192-4.193 4.192h-4.192c-2.315 0-4.192-1.877-4.192-4.192s1.877-4.192 4.192-4.192h4.192c2.316 0 4.193 1.877 4.193 4.192zm23.057-4.192h-4.192c-2.315 0-4.193 1.877-4.193 4.192s1.877 4.192 4.193 4.192h4.192c2.315 0 4.192-1.877 4.192-4.192.001-2.315-1.876-4.192-4.192-4.192z" fill="#915041"/><path d="m76.289 143.004v.419c0 3.473-2.815 6.289-6.289 6.289-3.473 0-6.289-2.815-6.289-6.289v-.419c0-.926.751-1.677 1.677-1.677h9.223c.927 0 1.678.751 1.678 1.677z" fill="#fff5f5"/><path d="m70 83.732c13.016 0 24.377 6.785 30.447 16.867-9.093 2.47-19.453 3.868-30.447 3.868s-21.354-1.398-30.446-3.868c6.069-10.082 17.431-16.867 30.446-16.867z" fill="#eac23f"/></g></svg>