<svg id="Capa_1" enable-background="new 0 0 512 512" height="512" viewBox="0 0 512 512" width="512" xmlns="http://www.w3.org/2000/svg"><g><path d="m512 256c0 141.385-114.615 256-256 256s-256-114.615-256-256 114.615-256 256-256 256 114.615 256 256z" fill="#fdbcbc"/><path d="m415.989 288.471 73.236 73.236c-1.463 3.223-2.991 6.41-4.582 9.56l-75.725-75.725zm39.944-34.068-7.071 7.071 55.766 55.766c.94-3.828 1.793-7.69 2.559-11.583zm-79.985 86.195 77.886 77.886c2.131-2.591 4.212-5.225 6.241-7.901l-77.056-77.056zm-268.166-25.451-71.801 71.801c1.754 2.941 3.566 5.845 5.434 8.708l73.439-73.439zm3.26 151.887c2.801 1.928 5.643 3.801 8.523 5.619l72.861-72.861-7.071-7.071zm42.294-119.868-84.013 84.014c2.282 2.431 4.611 4.817 6.985 7.157l84.099-84.099z" fill="#958fca"/><path d="m110.382 334.569-14.89-13.352c-4.112-3.687-4.456-10.009-.769-14.121 3.687-4.112 10.009-4.456 14.121-.769l14.89 13.352c4.112 3.687 4.456 10.009.769 14.121-3.687 4.112-10.009 4.456-14.121.769zm55.604 34.698c3.687-4.112 3.343-10.434-.769-14.121l-14.89-13.352c-4.112-3.687-10.434-3.343-14.121.769-3.687 4.112-3.343 10.434.769 14.121l14.89 13.352c4.112 3.687 10.434 3.343 14.121-.769zm41.483 35.467c3.687-4.112 3.343-10.434-.769-14.121l-14.89-13.352c-4.112-3.687-10.434-3.343-14.121.769-3.687 4.112-3.343 10.434.769 14.121l14.89 13.352c4.111 3.687 10.434 3.343 14.121-.769zm238.081-127.58c5.228 1.781 10.91-1.013 12.691-6.241l6.45-18.931c1.781-5.228-1.013-10.91-6.241-12.691-5.228-1.781-10.91 1.013-12.691 6.241l-6.45 18.931c-1.781 5.228 1.013 10.91 6.241 12.691zm-38.199 37.396c3.536 4.243 9.841 4.816 14.084 1.281l15.365-12.803c4.243-3.535 4.816-9.841 1.281-14.084-3.536-4.243-9.841-4.816-14.084-1.281l-15.365 12.803c-4.243 3.536-4.816 9.841-1.281 14.084zm-41.092 35.919c3.536 4.243 9.841 4.816 14.084 1.281l15.365-12.803c4.243-3.535 4.816-9.841 1.281-14.084-3.536-4.243-9.841-4.816-14.084-1.281l-15.365 12.803c-4.243 3.535-4.816 9.841-1.281 14.084z" fill="#51489a"/><path d="m393.02 423.354c1.966 1.94 1.987 5.107.047 7.071-1.94 1.966-5.106 1.986-7.071.047l-77.045-76.039c-1.456-1.436-1.845-3.546-1.161-5.341.24-.629.611-1.22 1.114-1.729 1.94-1.966 5.106-1.986 7.071-.047zm-332.629-328.178c-1.898-2.005-5.063-2.092-7.068-.193-2.006 1.896-2.092 5.063-.193 7.068l74.427 78.604c1.898 2.005 5.063 2.092 7.068.193.52-.492.911-1.07 1.172-1.691.744-1.771.427-3.893-.979-5.378zm358.596-42.819c-2.525-1.114-5.478.033-6.591 2.561l-38.125 86.565-19.175-65.003c-.782-2.648-3.564-4.164-6.21-3.381-2.649.782-4.163 3.562-3.381 6.21l23.041 78.106c.001.004.003.008.004.012.405 1.357 1.379 2.534 2.777 3.149.655.289 1.339.426 2.013.426 1.921 0 3.754-1.115 4.578-2.986l43.631-99.067c1.112-2.528-.035-5.479-2.562-6.592z" fill="#fc7979"/><path d="m433.811 62.933c0 11.046-8.954 20-20 20s-20-8.954-20-20 8.954-20 20-20 20 8.954 20 20zm-48.224 342.507c-11.046 0-20 8.954-20 20s8.954 20 20 20 20-8.954 20-20-8.955-20-20-20zm-325.827-325.826c-11.046 0-20 8.954-20 20s8.954 20 20 20 20-8.954 20-20-8.954-20-20-20zm290.54-12.414c-6.904 0-12.5 5.596-12.5 12.5s5.596 12.5 12.5 12.5 12.5-5.596 12.5-12.5-5.597-12.5-12.5-12.5zm-27.279 339.098c-6.904 0-12.5 5.596-12.5 12.5s5.596 12.5 12.5 12.5 12.5-5.596 12.5-12.5-5.596-12.5-12.5-12.5zm-208.021-335.865c-6.904 0-12.5 5.596-12.5 12.5s5.596 12.5 12.5 12.5 12.5-5.596 12.5-12.5-5.596-12.5-12.5-12.5z" fill="#f44545"/><path d="m433.811 62.933c0 2.391-.42 4.685-1.19 6.81-2.126.77-4.419 1.19-6.81 1.19-11.046 0-20-8.954-20-20 0-2.391.42-4.685 1.19-6.81 2.126-.77 4.419-1.19 6.81-1.19 11.046 0 20 8.954 20 20zm-48.224 342.507c-2.391 0-4.685.42-6.81 1.19-.77 2.126-1.19 4.419-1.19 6.81 0 11.046 8.954 20 20 20 2.391 0 4.685-.42 6.81-1.19.77-2.126 1.19-4.419 1.19-6.81 0-11.046-8.955-20-20-20zm-325.827-325.826c-2.391 0-4.685.42-6.81 1.19-.77 2.126-1.19 4.419-1.19 6.81 0 11.046 8.954 20 20 20 2.391 0 4.685-.42 6.81-1.19.77-2.126 1.19-4.419 1.19-6.81 0-11.046-8.954-20-20-20z" fill="#fb5858"/><path d="m413.66 302.734-148.624 127.796c-5.196 4.468-12.877 4.468-18.073 0l-148.623-127.796c-44.907-38.614-51.245-105.824-14.348-152.152 36.233-45.494 101.591-54.982 149.265-21.668l22.743 15.892 22.743-15.893c47.673-33.313 113.031-23.826 149.265 21.668 36.897 46.329 30.559 113.539-14.348 152.153z" fill="#fb5858"/><path d="m296.111 118.975-2.865 2.002-.537-.375c1.128-.563 2.262-1.106 3.402-1.627zm-186.233 8.159c.085-.106.17-.212.254-.317-9.702 6.304-18.559 14.246-26.14 23.765-36.897 46.328-30.559 113.538 14.348 152.152l148.624 127.796c5.196 4.468 12.877 4.468 18.073 0l12.171-10.466-152.035-130.728c-47.873-41.165-54.63-112.814-15.295-162.202z" fill="#f44545"/><path d="m245 359.115v69.727l-10-8.599v-58.99l-122.092-116.688-49.898.234c-.786-3.302-1.419-6.636-1.898-9.991l53.768-.252c1.267-.044 2.542.49 3.478 1.385l125.097 119.559c.987.944 1.545 2.25 1.545 3.615zm108.458-52.726-92.458-88.524v-76.553l-5 3.494-5-3.494v78.688c0 1.364.557 2.668 1.542 3.611l92.458 88.524v49.637l10-8.599v-43.173c0-1.364-.557-2.668-1.542-3.611z" fill="#af2727"/><path d="m270 155c0-2.761 2.239-5 5-5h10c2.761 0 5 2.239 5 5s-2.239 5-5 5h-10c-2.761 0-5-2.239-5-5zm15 15h-10c-2.761 0-5 2.239-5 5s2.239 5 5 5h10c2.761 0 5-2.239 5-5s-2.239-5-5-5zm0 20h-10c-2.761 0-5 2.239-5 5s2.239 5 5 5h10c2.761 0 5-2.239 5-5s-2.239-5-5-5zm-200 20c-2.761 0-5 2.239-5 5s2.239 5 5 5 5-2.239 5-5-2.239-5-5-5zm20 0c-2.761 0-5 2.239-5 5s2.239 5 5 5 5-2.239 5-5-2.239-5-5-5z" fill="#fdbcbc"/></g></svg>