<svg id="Layer_1" enable-background="new 0 0 510.333 510.333" height="512" viewBox="0 0 510.333 510.333" width="512" xmlns="http://www.w3.org/2000/svg"><g><g><path d="m410.46 52.946c-43.081-33.09-96.996-52.779-155.46-52.779-80.735 0-135.965 37.467-153.101 50.803l-1.646 6.796c-38.169 157.552 78.747 311.507 240.834 314.242 1.462.025 2.927.037 4.394.037.212 0 .425 0 .638-.001 35.643-.134 64.342-29.373 64.342-65.017v-254.081z" fill="#fa735f"/><path d="m331.911 432.154h-204.99l-24.533 27.308c42.551 31.842 95.376 50.705 152.612 50.705 70.456 0 134.746-28.736 181.154-75.549z" fill="#fa503c"/></g><g><path d="m177.26 434.616h258.893c33.405-33.695 57.549-76.752 68.047-125.211.178-1.087 6.134-23.477 6.134-54.239 0-46.753-12.927-90.56-34.89-128.234l-326.225-13.577z" fill="#afe6ff"/><g><path d="m510.333 75.47c0-13.531-10.802-24.5-24.333-24.5h-308.74l-15.63 40.483 15.629 36.939h333.074z" fill="#528ecb"/></g><path d="m110.187 118.116-76.469 10.267c-21.448 37.345-33.718 80.632-33.718 126.784 0 69.982 28.199 133.372 73.845 179.449h103.415v-306.224z" fill="#9dc6fb"/><path d="m101.9 50.97c-3.687 2.869-5.617 4.625-5.646 4.642-12.293 9.793-23.657 20.7-33.944 32.568l-4.424 13.643-10.642 5.503c-4.834 6.783-9.345 13.813-13.511 21.066h143.527v-77.422z" fill="#4a80aa"/><path d="m47.241 107.324h10.324c2.624 0 4.752-2.128 4.752-4.752v-14.385c-5.319 6.131-10.353 12.514-15.076 19.137z" fill="#fff"/><g><path d="m84.983 107.324h22.238c2.624 0 4.752-2.128 4.752-4.752v-22.238c0-2.624-2.128-4.752-4.752-4.752h-22.238c-2.624 0-4.752 2.128-4.752 4.752v22.238c0 2.625 2.128 4.752 4.752 4.752z" fill="#fff"/></g><g><path d="m134.64 107.324h22.238c2.624 0 4.752-2.128 4.752-4.752v-22.238c0-2.624-2.128-4.752-4.752-4.752h-22.238c-2.624 0-4.752 2.128-4.752 4.752v22.238c0 2.625 2.127 4.752 4.752 4.752z" fill="#fff"/></g><path d="m239.099 398.599c0 7.064-5.726 12.79-12.79 12.79h-155.634c-7.064 0-12.79-5.726-12.79-12.79v-21.322h181.214z" fill="#25bbcc"/><path d="m452.115 398.599c0 7.064-5.726 12.79-12.79 12.79h-156.363c-7.064 0-12.79-5.726-12.79-12.79v-21.322h181.943z" fill="#9dc6fb"/><g><path d="m280.282 84.655h185.433v20h-185.433z" fill="#fff"/></g><path d="m177.26 285.284h-106.585c-7.064 0-12.79 5.726-12.79 12.79v87.277c0 7.064 5.726 12.79 12.79 12.79h106.585z" fill="#f4fbff"/><path d="m439.325 285.284h-49.778l-7.227 60.646 7.227 52.212h49.778c7.064 0 12.79-5.726 12.79-12.79v-87.277c0-7.064-5.726-12.791-12.79-12.791z" fill="#fff"/><path d="m452.115 258.446c0 7.064-5.726 12.79-12.79 12.79h-381.44v-26.57h394.231v13.78z" fill="#9dc6fb"/><path d="m128.287 360.033v-36.638c0-3.9 4.175-6.378 7.599-4.509l33.562 18.319c3.568 1.948 3.568 7.071 0 9.019l-33.562 18.319c-3.424 1.868-7.599-.61-7.599-4.51z" fill="#ff4619"/><path d="m389.547 285.284h-106.585c-7.064 0-12.79 5.726-12.79 12.79v87.277c0 7.064 5.726 12.79 12.79 12.79h106.585z" fill="#f4fbff"/><path d="m303.095 380.732c-3.491 0-5.619-3.839-3.769-6.799l40.721-65.177c1.741-2.786 5.798-2.786 7.539 0l40.721 65.177c1.849 2.96-.279 6.799-3.769 6.799z" fill="#827ddc"/><path d="m357.866 380.732c-3.491 0-5.619-3.839-3.769-6.799l29.028-46.461c1.741-2.786 5.798-2.786 7.539 0l29.028 46.461c1.849 2.96-.279 6.799-3.769 6.799z" fill="#9292ea"/><circle cx="411.103" cy="316.802" fill="#827ddc" r="14.36"/><path d="m439.325 166.242h-262.065l-3.917 47.167 3.917 44.047h262.065c7.064 0 12.79-5.726 12.79-12.79v-65.634c0-7.063-5.726-12.79-12.79-12.79z" fill="#fff"/><path d="m177.26 166.242h-106.585c-7.064 0-12.79 5.726-12.79 12.79v65.634c0 7.064 5.726 12.79 12.79 12.79h106.585z" fill="#f4fbff"/></g><g><g fill="#ffbe82"><path d="m227.057 308.781h-112.93v-51.416h112.931c14.198 0 25.708 11.51 25.708 25.708-.001 14.198-11.51 25.708-25.709 25.708z"/><path d="m233.316 257.365h-112.931v51.416h77.143l60.058-17.21c.931-2.66 1.438-5.52 1.438-8.498 0-14.198-11.51-25.708-25.708-25.708z"/><path d="m187.523 205.694-63.192 134.134-82.106 6.469 104.614-181.196c5.217-9.036 16.771-12.132 25.807-6.915 16.557 9.559 23.025 30.213 14.877 47.508z"/><path d="m248.544 308.426h-86.646v51.416h35.63l75.058-16.585c1.076-2.835 1.666-5.91 1.666-9.123 0-14.198-11.51-25.708-25.708-25.708z"/><path d="m238.872 359.488h-112.931v51.416h71.587l65.38-16.57c1.08-2.839 1.672-5.92 1.672-9.138 0-14.198-11.51-25.708-25.708-25.708z"/><path d="m241.197 447.894c1.779-3.494 2.788-7.446 2.788-11.637 0-14.198-11.51-25.708-25.708-25.708h-97.911v37.345z"/><path d="m124.912 257.365c-12.681 0-24.82 2.314-36.026 6.531v123.31c0 33.517 27.171 60.688 60.688 60.688h22.643v-190.529z"/></g><g fill="#ff965a"><path d="m241.281 446.945h.023.041c-.025 0-.048 0-.064 0z"/><path d="m241.397 446.945h.103.005c-.035 0-.073 0-.108 0z"/><path d="m241.592 446.945h.025c-.043 0-.083 0-.117 0-.04 0-.091 0-.154 0h.008c-.02 0-.036 0-.049 0-2.034-.001-15.205-.007-84.346-.036-37.114-.035-67.182-30.133-67.182-67.247v-116.071c-13.366 4.898-25.433 12.491-35.526 22.139h-52.421c8.478 70.97 46.089 132.99 100.551 173.74 9.899 2.257 16.833 2.297 17.985 2.48h97.917c9.818-.004 19.087-5.698 23.354-15.006h-.005c-.006.001-.02.001-.04.001z"/></g><path d="m261.881 396.611 1.025-2.277-48.783-.025c-9.165 0-16.595 7.43-16.595 16.595h41.344c10.092 0 18.802-5.83 23.009-14.293z" fill="#ff965a"/><path d="m272.559 343.247h-58.435c-9.165 0-16.595 7.43-16.595 16.595h51.016c10.984 0 20.333-6.902 24.014-16.595z" fill="#ff965a"/><path d="m197.528 308.157 35.47.233c9.478.062 18.466-4.87 22.963-13.213.626-1.16 1.162-2.369 1.598-3.615h-43.436c-9.165-.001-16.595 7.429-16.595 16.595z" fill="#ff965a"/></g><path d="m465.715 128.392h44.618v126.775h-44.618z" fill="#afe6ff"/></g></svg>